<svg xmlns="http://www.w3.org/2000/svg" xmlns:xlink="http://www.w3.org/1999/xlink" viewBox="0 0 439.08 89.13"><defs><style>.cls-1{fill:url(#Degradado_sin_nombre_2);}.cls-2{fill:url(#Degradado_sin_nombre_2-2);}.cls-3{fill:#fff;}</style><linearGradient id="Degradado_sin_nombre_2" x1="263.31" y1="44.15" x2="286.34" y2="44.15" gradientUnits="userSpaceOnUse"><stop offset="0.01" stop-color="#608431"/><stop offset="1" stop-color="#75a63f"/></linearGradient><linearGradient id="Degradado_sin_nombre_2-2" x1="0" y1="44.56" x2="89.23" y2="44.56" xlink:href="#Degradado_sin_nombre_2"/></defs><title>clic</title><g id="Capa_2" data-name="Capa 2"><g id="Capa_1-2" data-name="Capa 1"><path d="M109.86,61V22.74q0-8.83,4.8-13.84t13.27-5q8,0,12.68,5.14t4.67,14v7.18H133.45V22q0-3.87-1.5-5.81a6.05,6.05,0,0,0-8.88,0q-1.5,1.93-1.5,5.81V63.69a9.52,9.52,0,0,0,1.5,5.84,6,6,0,0,0,8.88,0,9.53,9.53,0,0,0,1.5-5.84V53.52h11.83v7.8q0,9.81-4.62,15.13t-13.14,5.32q-8.73,0-13.19-5.26T109.86,61Z"/><path d="M157.26,81.77V7.1h11.41V71h17.87V81.77Z"/><path d="M195.11,81.77V7.1h11.72V81.77Z"/><path d="M219.12,61V22.74q0-8.83,4.8-13.84t13.27-5q8,0,12.68,5.14t4.67,14v7.18H242.72V22q0-3.87-1.5-5.81a6.05,6.05,0,0,0-8.88,0q-1.5,1.93-1.5,5.81V63.69a9.52,9.52,0,0,0,1.5,5.84,6,6,0,0,0,8.88,0,9.53,9.53,0,0,0,1.5-5.84V53.52h11.83v7.8q0,9.81-4.62,15.13t-13.14,5.32q-8.73,0-13.19-5.26T219.12,61Z"/><path d="M298.21,81.77V7.1h30V17.89H309.73V37.46h13.32V48.25H309.73V81.77Z"/><path d="M335.65,81.77V7.1h11.72V81.77Z"/><path d="M357.54,61.11l11-1.65q.31,5.68,2.17,8.39a6.21,6.21,0,0,0,5.47,2.71,6.88,6.88,0,0,0,5.11-2,7.15,7.15,0,0,0,2-5.24q0-5.84-9.3-15.08l-1.09-1.09q-9.09-9.09-11.67-14a21.79,21.79,0,0,1-2.58-10.35,18.45,18.45,0,0,1,5.19-13.3,16.92,16.92,0,0,1,12.68-5.4,15.58,15.58,0,0,1,11.93,5q4.65,5,5.32,13.5l-11.26,1.6q-.31-5-1.78-7.18a5.09,5.09,0,0,0-4.52-2.17,5.69,5.69,0,0,0-4.47,1.89,7.3,7.3,0,0,0-1.68,5q0,6.5,10.84,17l.67.67Q389.5,47.22,392,52.12a24,24,0,0,1,2.48,11,18.49,18.49,0,0,1-5.06,13.4,17,17,0,0,1-12.81,5.24q-8.57,0-13.61-5.47T357.54,61.11Z"/><path d="M404.63,7.1H416V37.56h11.52V7.1h11.51V81.77H427.56V48.35H416V81.77H404.63Z"/><path class="cls-1" d="M286.34,59.25h-5.59l-2.14-3.18q-3.13,3.82-7.18,3.82a7.57,7.57,0,0,1-5.86-2.48A9.06,9.06,0,0,1,263.31,51a12.18,12.18,0,0,1,5-10,10.3,10.3,0,0,1-2-5.77,6.83,6.83,0,0,1,1.82-4.88,6.19,6.19,0,0,1,4.72-1.93q4.41.1,6.68,4.68l-3.68,1.86a3.53,3.53,0,0,0-3.09-2.5,2.45,2.45,0,0,0-1.75.8,2.64,2.64,0,0,0-.7,1.89,7.42,7.42,0,0,0,1.72,4.18l6.45,9.17a19.13,19.13,0,0,0,.68-4h3.91a19.46,19.46,0,0,1-2,7.59Zm-10.22-6.81-5.36-7.54q-3.13,3-3.14,6a4.56,4.56,0,0,0,1.18,3.14,3.67,3.67,0,0,0,2.82,1.32Q274.08,55.39,276.12,52.44Z"/><path class="cls-2" d="M68.87,89.13H20.57C9.5,89.13,0,79.84,0,68.77V20.46C0,9.39,9.73,0,20.8,0H67.88c12,0,21.35,10,21.35,20.46v48.3A20.59,20.59,0,0,1,68.87,89.13Z"/><path class="cls-3" d="M69.93,22.42s3.92-.83,4.66-3.62c.46-1.74-4.63-2.25-10.68-2.42a51.58,51.58,0,0,0-16.07,2C31.86,22.83,9.31,38.25,14,57.88c3.52,14.73,18.43,13.77,25.27,15.36s13.35,6.17,12.42,7c-2.17-2.59-8.58-5.76-18.12-6.59S15.62,68.75,12.6,60,9.93,39,25,26.45C39.27,14.6,58.11,12.14,70,14.38c7.46,1.41,10.09,2.71,8.27,3.51a10.19,10.19,0,0,0-2.3,1.86A8.81,8.81,0,0,1,69.93,22.42Z"/><path class="cls-3" d="M76.72,22.57S74.13,30,61.41,36c-4.62,2.17-5.16,2.46-14.49,4.55-13.28,3-18.81,5.23-21.29,9.39A10.39,10.39,0,0,0,28.5,64c5.21,3.79,15.16,4.15,20.39-5.91A15.25,15.25,0,0,1,38,68.1,13.79,13.79,0,0,1,20.58,56.64c-1.4-9.78,6.59-15.55,17.86-17.7C52.27,36.3,67.18,35.06,76.72,22.57Z"/><circle class="cls-3" cx="62.92" cy="21.12" r="1.93" transform="translate(-3.36 17.64) rotate(-15.55)"/><path class="cls-3" d="M34.56,19.28A5.9,5.9,0,0,0,30,18.54c-2.94.51-6.61.61-7.62.27s-1,8.45-3.82,12.3c0,0,4.92-4.45,5-10.17C30.18,19.58,32.1,18.73,34.56,19.28Z"/><path class="cls-3" d="M49,57.27s-3.88,6.19-12.86,3.88c0,0,1.29,5.84,5.95,4.49C47,64.2,48.83,58.84,49,57.27Z"/></g></g></svg>