<svg xmlns="http://www.w3.org/2000/svg" viewBox="0 0 85.74 104"><defs><style>.cls-1{fill:#fff;}</style></defs><title>depuracion</title><g id="Capa_2" data-name="Capa 2"><g id="Capa_1-2" data-name="Capa 1"><g id="qbd39l"><path class="cls-1" d="M46.64,58.52C38.71,74.24,23.79,83.54,35,98.65c5.23,7,16,7,21.5.7C70.35,83.63,52.4,74.57,46.64,58.52Z"/><path class="cls-1" d="M46.64,58.52c5.76,16,23.71,25.1,9.88,40.82-5.54,6.3-16.27,6.33-21.5-.7C23.79,83.54,38.71,74.24,46.64,58.52Z"/></g><g id="qbd39l-2" data-name="qbd39l"><path class="cls-1" d="M15.66,6.89C7.72,22.6-7.19,31.9,4,47c5.23,7,16,7,21.5.7C39.37,32,21.42,22.93,15.66,6.89Z"/><path class="cls-1" d="M15.66,6.89c5.76,16,23.71,25.1,9.88,40.82C20,54,9.27,54,4,47-7.19,31.9,7.72,22.6,15.66,6.89Z"/></g><g id="qbd39l-3" data-name="qbd39l"><path class="cls-1" d="M70.74,0C62.8,15.72,47.89,25,59.13,40.13c5.23,7,16,7,21.5.7C94.45,25.1,76.5,16,70.74,0Z"/><path class="cls-1" d="M70.74,0c5.76,16,23.71,25.1,9.88,40.82-5.54,6.3-16.27,6.33-21.5-.7C47.89,25,62.8,15.72,70.74,0Z"/></g></g></g></svg>